<svg  xmlns="http://www.w3.org/2000/svg" xmlns:xlink="http://www.w3.org/1999/xlink" version="1.1" x="0px" y="0px" width="65px" height="65px" viewBox="0 0 65 65" enable-background="new 0 0 65 65" xml:space="preserve"><path fill="#FFFFFF" d="M34.768,14.648c-0.619-0.618-1.36-0.928-2.229-0.928c-0.865,0-1.608,0.31-2.227,0.899 c-0.619,0.619-0.929,1.361-0.929,2.229c0,0.867,0.31,1.6,0.9,2.227c0.619,0.6,1.4,0.9,2.2,0.9c0.865,0,1.607-0.31,2.229-0.929 c0.618-0.617,0.928-1.36,0.928-2.228c0.054-0.839-0.286-1.539-0.886-2.172H34.768L34.768,14.648z M33.282,2.729 c3.852,3.899,6.6,7.8,8.199,11.738c1.642,4,2.5,8.699,2.5,14.241c-0.016,2.489-0.162,5.358-0.439,8.602l8.327,9.3 c0.218,0.3,0.3,0.6,0.199,0.975l-3.713,14.104c-0.045,0.171-0.14,0.325-0.276,0.5c-0.187,0.186-0.435,0.294-0.742,0.325h-2.971 c-0.416-0.018-0.728-0.201-0.929-0.559l-4.431-8.374H25.97l-4.43,8.4c-0.031,0.062-0.093,0.139-0.187,0.2 c-0.216,0.218-0.464,0.325-0.742,0.325h-2.969c-0.557-0.03-0.896-0.295-1.021-0.789L12.91,47.614 c-0.062-0.371,0.016-0.696,0.231-0.976l8.328-9.256c-0.277-3.247-0.425-6.115-0.439-8.604c0.015-5.8,0.789-10.562,2.318-14.29 c1.531-3.728,4.315-7.608,8.353-11.646c0.216-0.218,0.476-0.329,0.776-0.338c0.351-0.055,0.601,0,0.8,0.235h0.006V2.729z"/></svg>