<?xml version="1.0" encoding="utf-8"?>
<!DOCTYPE svg PUBLIC "-//W3C//DTD SVG 1.1//EN" "http://www.w3.org/Graphics/SVG/1.1/DTD/svg11.dtd">
<svg version="1.1" id="Layer_1" xmlns="http://www.w3.org/2000/svg" xmlns:xlink="http://www.w3.org/1999/xlink" x="0px" y="0px"
	 width="65px" height="65px" viewBox="126.286 864 65 65" enable-background="new 126.286 864 65 65" xml:space="preserve">
<path fill="#FFFFFF" d="M161.013,878.667c-0.619-0.618-1.361-0.928-2.228-0.928c-0.865,0-1.608,0.31-2.227,0.928
	c-0.618,0.619-0.928,1.361-0.928,2.228s0.31,1.608,0.928,2.227c0.618,0.619,1.361,0.928,2.227,0.928
	c0.866,0,1.608-0.309,2.228-0.928c0.618-0.618,0.928-1.361,0.928-2.227C161.94,880.028,161.631,879.286,161.013,878.667z
	 M159.527,866.79c3.852,3.851,6.597,7.764,8.235,11.738c1.64,3.975,2.467,8.722,2.482,14.243c-0.016,2.489-0.163,5.358-0.441,8.605
	l8.328,9.256c0.217,0.278,0.294,0.604,0.232,0.975l-3.712,14.104c-0.046,0.171-0.14,0.325-0.278,0.464
	c-0.186,0.186-0.433,0.294-0.742,0.325h-2.97c-0.417-0.016-0.727-0.201-0.928-0.557l-4.431-8.374h-13.037l-4.43,8.374
	c-0.031,0.062-0.093,0.139-0.186,0.231c-0.216,0.217-0.464,0.325-0.742,0.325h-2.969c-0.557-0.031-0.897-0.294-1.021-0.789
	l-3.711-14.104c-0.062-0.371,0.016-0.696,0.232-0.975l8.328-9.256c-0.278-3.247-0.425-6.116-0.44-8.605
	c0.015-5.8,0.789-10.562,2.319-14.29c1.531-3.727,4.315-7.608,8.352-11.645c0.216-0.217,0.476-0.329,0.776-0.337
	C159.075,866.492,159.327,866.589,159.527,866.79L159.527,866.79z"/>
</svg>
